<svg width="147" height="45" viewBox="0 0 147 45" fill="none" xmlns="http://www.w3.org/2000/svg">
<path d="M28.0586 0.799316H0.8573V5.59329H11.8482V35.7554H17.1178V5.59329H28.0586V0.799316ZM37.3561 11.2861C30.3801 11.2861 24.709 16.18 24.709 23.7704C24.709 31.3609 30.3801 36.2547 37.3561 36.2547C44.3822 36.2547 50.0533 31.3609 50.0533 23.7704C50.0533 16.18 44.3822 11.2861 37.3561 11.2861ZM37.3561 31.6106C32.0363 31.6106 29.8782 29.3634 29.8782 23.7704C29.8782 18.1775 32.0363 15.9303 37.3561 15.9303C42.6759 15.9303 44.8841 18.1775 44.8841 23.7704C44.8841 29.3634 42.6759 31.6106 37.3561 31.6106ZM68.9187 16.3298V11.7855H61.5919V4.44473H56.4729V11.7855H51.404V16.3298H56.4729V29.1137C56.4729 33.1087 59.1328 35.7554 63.1477 35.7554H68.1664V31.2111H61.5919V16.3298H68.9187ZM90.24 11.7855V16.8292C88.5839 13.2836 85.4723 11.2861 81.357 11.2861C74.5817 11.2861 70.3159 16.2799 70.3159 23.7704C70.3159 31.261 74.6319 36.2547 81.5577 36.2547C85.5726 36.2547 88.5839 34.2573 90.24 30.8116V35.7554H95.3591V11.7855H90.24ZM82.9629 31.6106C77.6431 31.6106 75.4851 29.3634 75.4851 23.7704C75.4851 18.1775 77.6431 15.9303 82.9629 15.9303C88.2827 15.9303 90.491 18.1775 90.491 23.7704C90.491 29.3634 88.2827 31.6106 82.9629 31.6106ZM101.741 35.7554H106.86V0.799316H101.741V35.7554ZM113.222 35.7554H118.341V0.799316H113.222V35.7554ZM141.117 11.7855L135.847 26.8666L134.04 32.5095L132.334 26.9165L127.114 11.7855H121.443L131.932 38.8015L132.033 38.7017L131.732 39.7004H122.999V44.2447H128.168C132.585 44.2447 134.492 42.7965 135.947 39.1511L146.788 11.7855H141.117Z" fill="white"/>
</svg>
