<svg width="165" height="33" viewBox="0 0 165 33" fill="none" xmlns="http://www.w3.org/2000/svg">
<path d="M9.58445 24.0482C5.22791 24.0482 3.51509 22.2328 3.51509 17.5274C3.51509 12.822 5.22791 11.0066 9.58445 11.0066C12.675 11.0066 14.3506 12.1922 15.0953 16.0084L17.9996 15.2303C16.9198 10.6731 13.792 8.45012 9.62168 8.45012C4.25979 8.45012 0.573486 12.081 0.573486 17.5274C0.573486 22.9738 4.25979 26.6047 9.62168 26.6047C13.792 26.6047 16.9198 24.3817 17.9996 19.8245L15.0953 19.0465C14.3506 22.8626 12.675 24.0482 9.58445 24.0482ZM29.2677 8.45012C24.2409 8.45012 20.2195 12.081 20.2195 17.5274C20.2195 22.9738 24.2409 26.6047 29.2677 26.6047C34.2945 26.6047 38.3159 22.9738 38.3159 17.5274C38.3159 12.081 34.2945 8.45012 29.2677 8.45012ZM29.2677 24.0112C24.8739 24.0112 23.1611 22.1957 23.1611 17.5274C23.1611 12.8591 24.8739 11.0436 29.2677 11.0436C33.6615 11.0436 35.3743 12.8591 35.3743 17.5274C35.3743 22.1957 33.6615 24.0112 29.2677 24.0112ZM51.3174 8.45012C47.6311 8.45012 45.7693 10.3767 44.9129 13.1184V8.82062H42.0458V26.2342H44.9129V18.1943C44.9129 13.6742 47.0725 11.0436 50.4982 11.0436C53.1047 11.0436 54.8175 12.5997 54.8175 15.4526V26.2342H57.6846V15.2674C57.6846 10.8954 55.4133 8.45012 51.3174 8.45012ZM68.5928 26.6047C72.7632 26.6047 75.5186 24.4558 75.5186 21.2324C75.5186 18.4537 73.7313 17.1569 71.162 16.6753L66.7686 15.8231C65.1675 15.5267 64.6462 14.8598 64.6462 13.4519C64.6462 11.7476 65.8005 10.9695 68.2949 10.9695C70.6035 10.9695 72.0184 11.4512 72.3908 14.7487L75.2207 13.9706C74.476 9.78392 71.5344 8.45012 68.1832 8.45012C64.311 8.45012 61.7418 10.5249 61.7418 13.6742C61.7418 16.8976 64.0876 18.1573 66.6196 18.6389L70.045 19.3058C72.1674 19.7134 72.6887 20.2321 72.6887 21.7141C72.6887 23.3443 71.4227 24.0853 68.779 24.0853C65.8749 24.0853 64.46 23.122 63.9759 20.3062L61.146 21.2324C61.9652 24.8263 64.7951 26.6047 68.5928 26.6047ZM91.7046 8.82062V16.8605C91.7046 21.3806 89.545 24.0112 86.1193 24.0112C83.5128 24.0112 81.8 22.4551 81.8 19.6022V8.82062H78.9329V19.7875C78.9329 24.1594 81.2042 26.6047 85.3001 26.6047C88.9864 26.6047 90.8482 24.6781 91.7046 21.9364V26.2342H94.5717V8.82062H91.7046ZM99.7847 26.2342H102.652V0.299072H99.7847V26.2342ZM117.659 11.4141V8.82062H112.074V3.33719H109.207V8.82062H105.26V11.4141H109.207V21.9734C109.207 24.5299 110.92 26.2342 113.489 26.2342H117.026V23.6407H112.074V11.4141H117.659ZM121.983 4.52279C123.361 4.52279 124.106 3.74474 124.069 2.41093C124.031 1.11417 123.287 0.410223 121.983 0.410223C120.569 0.410223 119.787 1.11417 119.824 2.41093C119.861 3.74474 120.643 4.52279 121.983 4.52279ZM120.494 26.2342H123.361V8.82062H120.494V26.2342ZM137.849 8.45012C134.163 8.45012 132.301 10.3767 131.444 13.1184V8.82062H128.577V26.2342H131.444V18.1943C131.444 13.6742 133.604 11.0436 137.03 11.0436C139.636 11.0436 141.349 12.5997 141.349 15.4526V26.2342H144.216V15.2674C144.216 10.8954 141.945 8.45012 137.849 8.45012ZM162.125 8.82062V12.1551C160.933 9.85802 158.736 8.45012 155.832 8.45012C151.14 8.45012 147.752 11.9699 147.752 17.0087C147.752 22.0105 151.14 25.5303 155.832 25.5303C158.736 25.5303 160.933 24.1223 162.125 21.8252V25.4191C162.125 28.7907 160.486 30.3838 156.465 30.3838C152.89 30.3838 151.736 29.6428 150.731 26.6788L147.975 27.9756C149.204 31.3101 151.997 32.9032 156.465 32.9032C161.752 32.9032 164.992 29.9022 164.992 25.4191V8.82062H162.125ZM156.465 22.8997C152.555 22.8997 150.694 21.0101 150.694 17.0087C150.694 12.9702 152.555 11.0436 156.539 11.0436C160.486 11.0436 162.348 12.9702 162.348 17.0087C162.348 21.0101 160.449 22.8997 156.465 22.8997Z" fill="white"/>
</svg>
