<svg width="77" height="77" viewBox="0 0 77 77" fill="none" xmlns="http://www.w3.org/2000/svg">
<path fill-rule="evenodd" clip-rule="evenodd" d="M0 38.0973C0 17.0568 17.142 0 38.2877 0C59.4333 0 76.5753 17.0568 76.5753 38.0973V76.1946H38.2877C17.142 76.1946 0 59.1378 0 38.0973ZM8.58034 24.4854H58.3624C61.3574 24.4854 63.7858 29.4791 63.7858 33.1841V34.9561H45.8966C42.7397 34.9561 40.4732 37.614 40.4732 39.4665V69.9121H36.5692C32.5405 69.9121 29.7883 67.3347 29.7883 64.4351V34.9561H12.3039C10.0615 34.9561 8.58034 32.4592 8.58034 30.6067V24.4854ZM63.7858 59.2803V46.7155H53.2628C51.9186 46.7155 50.9963 47.9554 50.9963 49.2929V59.2803H63.7858Z" fill="white"/>
</svg>
