<svg width="131" height="33" viewBox="0 0 131 33" fill="none" xmlns="http://www.w3.org/2000/svg">
<path d="M8.99886 24.0482C4.6667 24.0482 2.96347 22.2327 2.96347 17.5274C2.96347 12.822 4.6667 11.0065 8.99886 11.0065C12.0721 11.0065 13.7383 12.1921 14.4788 16.0083L17.3669 15.2302C16.2932 10.6731 13.1829 8.45005 9.03588 8.45005C3.704 8.45005 0.0383301 12.081 0.0383301 17.5274C0.0383301 22.9737 3.704 26.6047 9.03588 26.6047C13.1829 26.6047 16.2932 24.3816 17.3669 19.8245L14.4788 19.0464C13.7383 22.8626 12.0721 24.0482 8.99886 24.0482ZM29.6087 8.4871C26.0911 8.4871 24.536 10.8954 23.9066 13.7853V8.82055H21.0555V26.2342H23.9066V18.3054C23.9066 14.5633 25.4987 11.1918 29.2384 11.1918C30.7195 11.1918 31.3119 11.4511 31.6452 11.6364V8.74645C31.1638 8.52415 30.4603 8.4871 29.6087 8.4871ZM48.2471 17.0457C48.2471 11.7105 44.9147 8.45005 40.2123 8.45005C35.3617 8.45005 31.7701 12.118 31.7701 17.5274C31.7701 23.0478 35.1396 26.6047 40.3604 26.6047C43.6187 26.6047 46.6179 25.2708 47.8398 22.1957L45.1739 21.1583C44.3593 23.4554 43.2114 24.1593 40.3604 24.1593C36.5466 24.1593 34.8804 22.5291 34.6952 18.4166H48.2101C48.2471 17.7867 48.2471 17.5644 48.2471 17.0457ZM40.1752 10.8583C43.6928 10.8583 45.1739 12.3403 45.396 16.0824H34.7323C35.0655 12.5256 36.8428 10.8583 40.1752 10.8583ZM65.3964 8.82055V12.3774C64.1004 9.89501 61.8048 8.45005 58.8056 8.45005C53.8069 8.45005 50.4745 12.081 50.4745 17.5274C50.4745 22.9737 53.8069 26.6047 58.8056 26.6047C61.8048 26.6047 64.1004 25.1597 65.3964 22.6773V26.2342H68.2468V8.82055H65.3964ZM59.4721 24.0111C55.1029 24.0111 53.3997 22.1957 53.3997 17.5274C53.3997 12.859 55.1029 11.0436 59.4721 11.0436C63.8412 11.0436 65.5445 12.859 65.5445 17.5274C65.5445 22.1957 63.8412 24.0111 59.4721 24.0111ZM83.1816 11.4141V8.82055H77.6275V3.33712H74.7764V8.82055H70.8516V11.4141H74.7764V21.9734C74.7764 24.5298 76.4797 26.2342 79.0345 26.2342H82.5537V23.6406H77.6275V11.4141H83.1816ZM87.4831 4.52273C88.8531 4.52273 89.5937 3.74467 89.5566 2.41086C89.5196 1.11411 88.7791 0.410156 87.4831 0.410156C86.0761 0.410156 85.2985 1.11411 85.3355 2.41086C85.3726 3.74467 86.1502 4.52273 87.4831 4.52273ZM86.002 26.2342H88.8531V8.82055H86.002V26.2342ZM103.258 8.45005C99.5925 8.45005 97.7412 10.3767 96.8896 13.1184V8.82055H94.0385V26.2342H96.8896V18.1943C96.8896 13.6741 99.0371 11.0436 102.444 11.0436C105.035 11.0436 106.739 12.5997 106.739 15.4525V26.2342H109.59V15.2673C109.59 10.8954 107.331 8.45005 103.258 8.45005ZM127.398 8.82055V12.1551C126.213 9.85796 124.029 8.45005 121.141 8.45005C116.475 8.45005 113.106 11.9698 113.106 17.0087C113.106 22.0104 116.475 25.5302 121.141 25.5302C124.029 25.5302 126.213 24.1223 127.398 21.8252V25.419C127.398 28.7906 125.769 30.3838 121.77 30.3838C118.215 30.3838 117.068 29.6428 116.068 26.6788L113.328 27.9755C114.55 31.31 117.327 32.9032 121.77 32.9032C127.028 32.9032 130.249 29.9021 130.249 25.419V8.82055H127.398ZM121.77 22.8996C117.882 22.8996 116.031 21.0101 116.031 17.0087C116.031 12.9702 117.882 11.0436 121.844 11.0436C125.769 11.0436 127.62 12.9702 127.62 17.0087C127.62 21.0101 125.732 22.8996 121.77 22.8996Z" fill="#FFE648"/>
</svg>
