<svg width="146" height="45" viewBox="0 0 146 45" fill="none" xmlns="http://www.w3.org/2000/svg">
<path d="M27.381 0.799072H0.332031V5.59305H11.2614V35.7551H16.5015V5.59305H27.381V0.799072ZM36.6265 11.2859C29.6896 11.2859 24.0502 16.1797 24.0502 23.7702C24.0502 31.3607 29.6896 36.2545 36.6265 36.2545C43.6133 36.2545 49.2527 31.3607 49.2527 23.7702C49.2527 16.1797 43.6133 11.2859 36.6265 11.2859ZM36.6265 31.6103C31.3365 31.6103 29.1905 29.3632 29.1905 23.7702C29.1905 18.1772 31.3365 15.9301 36.6265 15.9301C41.9165 15.9301 44.1124 18.1772 44.1124 23.7702C44.1124 29.3632 41.9165 31.6103 36.6265 31.6103ZM68.0125 16.3296V11.7853H60.7267V4.44449H55.6363V11.7853H50.5958V16.3296H55.6363V29.1135C55.6363 33.1085 58.2813 35.7551 62.2738 35.7551H67.2644V31.2108H60.7267V16.3296H68.0125ZM89.2144 11.7853V16.8289C87.5675 13.2834 84.4734 11.2859 80.3811 11.2859C73.6438 11.2859 69.4018 16.2796 69.4018 23.7702C69.4018 31.2608 73.6937 36.2545 80.5807 36.2545C84.5732 36.2545 87.5675 34.257 89.2144 30.8113V35.7551H94.3048V11.7853H89.2144ZM81.9781 31.6103C76.6881 31.6103 74.5421 29.3632 74.5421 23.7702C74.5421 18.1772 76.6881 15.9301 81.9781 15.9301C87.2681 15.9301 89.464 18.1772 89.464 23.7702C89.464 29.3632 87.2681 31.6103 81.9781 31.6103ZM100.651 35.7551H105.741V0.799072H100.651V35.7551ZM112.068 35.7551H117.159V0.799072H112.068V35.7551ZM139.806 11.7853L134.566 26.8663L132.769 32.5092L131.073 26.9162L125.882 11.7853H120.243L130.673 38.8013L130.773 38.7014L130.474 39.7002H121.79V44.2445H126.93C131.322 44.2445 133.219 42.7963 134.666 39.1509L145.446 11.7853H139.806Z" fill="#FFE648"/>
</svg>
