<svg width="77" height="77" viewBox="0 0 77 77" fill="none" xmlns="http://www.w3.org/2000/svg">
<path fill-rule="evenodd" clip-rule="evenodd" d="M-0.000244141 38.097C-0.000244141 17.0565 17.0458 -0.000244141 38.0731 -0.000244141C59.1004 -0.000244141 76.1465 17.0565 76.1465 38.097V76.1943H38.0731C17.0458 76.1943 -0.000244141 59.1375 -0.000244141 38.097ZM8.53207 24.4851H58.0355C61.0137 24.4851 63.4285 29.4788 63.4285 33.1839V34.9558H45.6395C42.5003 34.9558 40.2464 37.6138 40.2464 39.4663V69.9119H36.3642C32.3581 69.9119 29.6213 67.3345 29.6213 64.4349V34.9558H12.2347C10.0049 34.9558 8.53207 32.459 8.53207 30.6065V24.4851ZM63.4285 59.2801V46.7152H52.9644C51.6277 46.7152 50.7106 47.9551 50.7106 49.2926V59.2801H63.4285Z" fill="#FFE648"/>
</svg>
