<svg width="146" height="45" viewBox="0 0 146 45" fill="none" xmlns="http://www.w3.org/2000/svg">
<path d="M27.6291 0.638153H0.524414V5.43213H11.4763V35.5942H16.7272V5.43213H27.6291V0.638153ZM36.8936 11.125C29.9424 11.125 24.2914 16.0188 24.2914 23.6093C24.2914 31.1997 29.9424 36.0936 36.8936 36.0936C43.8948 36.0936 49.5457 31.1997 49.5457 23.6093C49.5457 16.0188 43.8948 11.125 36.8936 11.125ZM36.8936 31.4494C31.5927 31.4494 29.4423 29.2023 29.4423 23.6093C29.4423 18.0163 31.5927 15.7691 36.8936 15.7691C42.1945 15.7691 44.3949 18.0163 44.3949 23.6093C44.3949 29.2023 42.1945 31.4494 36.8936 31.4494ZM68.3441 16.1686V11.6243H61.0434V4.28357H55.9425V11.6243H50.8916V16.1686H55.9425V28.9526C55.9425 32.9476 58.5929 35.5942 62.5936 35.5942H67.5945V31.0499H61.0434V16.1686H68.3441ZM89.5897 11.6243V16.668C87.9394 13.1225 84.8389 11.125 80.7382 11.125C73.987 11.125 69.7363 16.1187 69.7363 23.6093C69.7363 31.0999 74.0371 36.0936 80.9382 36.0936C84.9389 36.0936 87.9394 34.0961 89.5897 30.6504V35.5942H94.6906V11.6243H89.5897ZM82.3385 31.4494C77.0376 31.4494 74.8872 29.2023 74.8872 23.6093C74.8872 18.0163 77.0376 15.7691 82.3385 15.7691C87.6394 15.7691 89.8398 18.0163 89.8398 23.6093C89.8398 29.2023 87.6394 31.4494 82.3385 31.4494ZM101.05 35.5942H106.151V0.638153H101.05V35.5942ZM112.49 35.5942H117.591V0.638153H112.49V35.5942ZM140.286 11.6243L135.035 26.7054L133.234 32.3483L131.534 26.7553L126.333 11.6243H120.682L131.134 38.6404L131.234 38.5405L130.934 39.5393H122.232V44.0836H127.383C131.784 44.0836 133.684 42.6354 135.135 38.99L145.937 11.6243H140.286Z" fill="#111E4C"/>
</svg>
