<svg width="77" height="77" viewBox="0 0 77 77" fill="none" xmlns="http://www.w3.org/2000/svg">
<path fill-rule="evenodd" clip-rule="evenodd" d="M0 38.0973C0 17.0568 17.0812 0 38.1517 0C59.2223 0 76.3035 17.0568 76.3035 38.0973V76.1946H38.1517C17.0812 76.1946 0 59.1378 0 38.0973ZM8.54987 24.4854H58.1552C61.1396 24.4854 63.5593 29.4791 63.5593 33.1841V34.9561H45.7337C42.588 34.9561 40.3295 37.614 40.3295 39.4665V69.9121H36.4393C32.4249 69.9121 29.6825 67.3347 29.6825 64.4351V34.9561H12.2602C10.0257 34.9561 8.54987 32.4592 8.54987 30.6067V24.4854ZM63.5593 59.2803V46.7155H53.0736C51.7342 46.7155 50.8152 47.9554 50.8152 49.2929V59.2803H63.5593Z" fill="#111E4C"/>
</svg>
