<svg width="149" height="33" viewBox="0 0 149 33" fill="none" xmlns="http://www.w3.org/2000/svg">
<path d="M16.745 17.0459C16.745 11.7107 13.4057 8.45024 8.69365 8.45024C3.83314 8.45024 0.234131 12.1182 0.234131 17.5275C0.234131 23.048 3.61052 26.6049 8.84207 26.6049C12.1071 26.6049 15.1125 25.271 16.3369 22.1959L13.6655 21.1585C12.8492 23.4556 11.699 24.1595 8.84207 24.1595C5.02044 24.1595 3.3508 22.5293 3.16529 18.4168H16.7079C16.745 17.7869 16.745 17.5646 16.745 17.0459ZM8.65655 10.8585C12.1813 10.8585 13.6655 12.3405 13.8881 16.0826H3.20239C3.53631 12.5258 5.31727 10.8585 8.65655 10.8585ZM29.6998 8.45024C26.0266 8.45024 24.1715 10.3769 23.3181 13.1186V8.82074H20.4612V26.2344H23.3181V18.1945C23.3181 13.6743 25.4701 11.0438 28.8836 11.0438C31.4808 11.0438 33.1875 12.5999 33.1875 15.4527V26.2344H36.0445V15.2675C36.0445 10.8956 33.7812 8.45024 29.6998 8.45024ZM53.8896 8.82074V12.1553C52.7023 9.85815 50.5133 8.45024 47.6192 8.45024C42.9442 8.45024 39.5678 11.97 39.5678 17.0088C39.5678 22.0106 42.9442 25.5304 47.6192 25.5304C50.5133 25.5304 52.7023 24.1225 53.8896 21.8254V25.4192C53.8896 28.7908 52.2571 30.384 48.25 30.384C44.6881 30.384 43.5379 29.643 42.5361 26.679L39.7904 27.9757C41.0149 31.3102 43.7976 32.9034 48.25 32.9034C53.5186 32.9034 56.7466 29.9023 56.7466 25.4192V8.82074H53.8896ZM48.25 22.8998C44.3541 22.8998 42.499 21.0103 42.499 17.0088C42.499 12.9704 44.3541 11.0438 48.3242 11.0438C52.2571 11.0438 54.1123 12.9704 54.1123 17.0088C54.1123 21.0103 52.22 22.8998 48.25 22.8998ZM75.4003 8.82074V12.3776C74.1017 9.8952 71.8013 8.45024 68.7959 8.45024C63.7878 8.45024 60.4485 12.0812 60.4485 17.5275C60.4485 22.9739 63.7878 26.6049 68.7959 26.6049C71.8013 26.6049 74.1017 25.1599 75.4003 22.6775V26.2344H78.2572V8.82074H75.4003ZM69.4638 24.0113C65.0864 24.0113 63.3797 22.1959 63.3797 17.5275C63.3797 12.8592 65.0864 11.0438 69.4638 11.0438C73.8419 11.0438 75.5487 12.8592 75.5487 17.5275C75.5487 22.1959 73.8419 24.0113 69.4638 24.0113ZM96.3039 8.82074V12.1553C95.1166 9.85815 92.9275 8.45024 90.0334 8.45024C85.3584 8.45024 81.982 11.97 81.982 17.0088C81.982 22.0106 85.3584 25.5304 90.0334 25.5304C92.9275 25.5304 95.1166 24.1225 96.3039 21.8254V25.4192C96.3039 28.7908 94.6713 30.384 90.6642 30.384C87.1023 30.384 85.9521 29.643 84.9503 26.679L82.2047 27.9757C83.4291 31.3102 86.2118 32.9034 90.6642 32.9034C95.9328 32.9034 99.1608 29.9023 99.1608 25.4192V8.82074H96.3039ZM90.6642 22.8998C86.7684 22.8998 84.9132 21.0103 84.9132 17.0088C84.9132 12.9704 86.7684 11.0438 90.7384 11.0438C94.6713 11.0438 96.5265 12.9704 96.5265 17.0088C96.5265 21.0103 94.6342 22.8998 90.6642 22.8998ZM105.83 4.52292C107.203 4.52292 107.945 3.74486 107.907 2.41105C107.87 1.11429 107.128 0.410339 105.83 0.410339C104.42 0.410339 103.641 1.11429 103.678 2.41105C103.715 3.74486 104.494 4.52292 105.83 4.52292ZM104.346 26.2344H107.202V8.82074H104.346V26.2344ZM121.639 8.45024C117.966 8.45024 116.11 10.3769 115.257 13.1186V8.82074H112.4V26.2344H115.257V18.1945C115.257 13.6743 117.409 11.0438 120.823 11.0438C123.42 11.0438 125.127 12.5999 125.127 15.4527V26.2344H127.983V15.2675C127.983 10.8956 125.72 8.45024 121.639 8.45024ZM145.829 8.82074V12.1553C144.641 9.85815 142.452 8.45024 139.558 8.45024C134.883 8.45024 131.507 11.97 131.507 17.0088C131.507 22.0106 134.883 25.5304 139.558 25.5304C142.452 25.5304 144.641 24.1225 145.829 21.8254V25.4192C145.829 28.7908 144.196 30.384 140.189 30.384C136.627 30.384 135.477 29.643 134.475 26.679L131.729 27.9757C132.954 31.3102 135.736 32.9034 140.189 32.9034C145.457 32.9034 148.685 29.9023 148.685 25.4192V8.82074H145.829ZM140.189 22.8998C136.293 22.8998 134.438 21.0103 134.438 17.0088C134.438 12.9704 136.293 11.0438 140.263 11.0438C144.196 11.0438 146.051 12.9704 146.051 17.0088C146.051 21.0103 144.159 22.8998 140.189 22.8998Z" fill="#111E4C"/>
</svg>
