<svg width="164" height="150" viewBox="0 0 164 150" fill="none" xmlns="http://www.w3.org/2000/svg">
<path d="M11.3013 136.257L15.4451 129.062H129.677L133.59 136.512C136.214 141.506 132.592 147.5 126.951 147.5H17.8003C12.0301 147.5 8.42128 141.257 11.3013 136.257Z" fill="#4E77CC" stroke="#00C5BF" stroke-width="5"/>
<rect x="16.5" y="51.7188" width="112.188" height="65.3125" rx="7.5" fill="#4E77CC" stroke="#00C5BF" stroke-width="5"/>
<circle cx="72.5938" cy="72.6562" r="14.0625" fill="white"/>
<path d="M49.1562 109.259C49.1562 98.1046 58.1984 89.0625 69.3524 89.0625H75.8351C86.9891 89.0625 96.0312 98.1046 96.0312 109.259C96.0312 111.049 94.58 112.5 92.7899 112.5H52.3976C50.6075 112.5 49.1562 111.049 49.1562 109.259Z" fill="white"/>
<rect x="113.107" width="50.8929" height="33.9286" rx="5" fill="#FF4E0A"/>
<path d="M107.866 43.5312L114.228 26.5669L128.011 30.808L107.866 43.5312Z" fill="#FF4E0A"/>
<path d="M114.228 26.5669L114.375 26.089L113.925 25.9506L113.76 26.3913L114.228 26.5669ZM107.866 43.5312L107.398 43.3556C107.323 43.5567 107.384 43.7834 107.551 43.919C107.717 44.0545 107.952 44.0686 108.133 43.9539L107.866 43.5312ZM128.011 30.808L128.278 31.2307L129.198 30.6499L128.158 30.3301L128.011 30.808ZM113.76 26.3913L107.398 43.3556L108.334 43.7067L114.696 26.7425L113.76 26.3913ZM108.133 43.9539L128.278 31.2307L127.744 30.3852L107.599 43.1084L108.133 43.9539ZM128.158 30.3301L114.375 26.089L114.081 27.0448L127.864 31.2859L128.158 30.3301Z" fill="#FF4E0A"/>
</svg>
