<svg width="124" height="150" viewBox="0 0 124 150" fill="none" xmlns="http://www.w3.org/2000/svg">
<line x1="105.797" y1="46.0387" x2="97.1014" y2="78.6474" stroke="#00C5BF" stroke-width="3"/>
<mask id="path-2-inside-1_243_359" fill="white">
<path d="M108.695 45.6522C108.695 39.657 107.515 33.7206 105.22 28.1818C102.926 22.6431 99.5634 17.6104 95.3242 13.3712C91.0851 9.13202 86.0524 5.7693 80.5136 3.47506C74.9748 1.18083 69.0384 -2.62055e-07 63.0433 0C57.0482 2.62055e-07 51.1117 1.18083 45.573 3.47507C40.0342 5.7693 35.0015 9.13202 30.7623 13.3712C26.5231 17.6104 23.1604 22.6431 20.8662 28.1818C18.5719 33.7206 17.3911 39.657 17.3911 45.6522L63.0433 45.6522H108.695Z"/>
</mask>
<path d="M108.695 45.6522C108.695 39.657 107.515 33.7206 105.22 28.1818C102.926 22.6431 99.5634 17.6104 95.3242 13.3712C91.0851 9.13202 86.0524 5.7693 80.5136 3.47506C74.9748 1.18083 69.0384 -2.62055e-07 63.0433 0C57.0482 2.62055e-07 51.1117 1.18083 45.573 3.47507C40.0342 5.7693 35.0015 9.13202 30.7623 13.3712C26.5231 17.6104 23.1604 22.6431 20.8662 28.1818C18.5719 33.7206 17.3911 39.657 17.3911 45.6522L63.0433 45.6522H108.695Z" stroke="#00C5BF" stroke-width="20" mask="url(#path-2-inside-1_243_359)"/>
<circle cx="63.0435" cy="45.6522" r="39.1304" fill="white"/>
<circle cx="63.0434" cy="45.6521" r="34.7826" fill="#4E77CC"/>
<path d="M0 141.281C0 111.279 24.322 86.9565 54.3247 86.9565H69.5884C99.5911 86.9565 123.913 111.279 123.913 141.281C123.913 146.096 120.01 150 115.194 150H8.71878C3.90353 150 0 146.096 0 141.281Z" fill="#4E77CC"/>
<rect x="13.0435" y="34.7826" width="13.0435" height="19.5652" rx="6.52174" fill="#FF4E0A"/>
<rect x="100" y="34.7826" width="13.0435" height="19.5652" rx="6.52174" fill="#FF4E0A"/>
<circle cx="96.4348" cy="79.4348" r="5.43478" fill="#FF4E0A"/>
</svg>
