<svg width="66" height="63" viewBox="0 0 66 63" fill="none" xmlns="http://www.w3.org/2000/svg">
<circle cx="45.9617" cy="19.2135" r="9.23002" fill="white"/>
<circle cx="24.8645" cy="19.2135" r="9.23002" fill="#00C5BF"/>
<path d="M10.737 45.4549C10.737 37.5661 17.1321 31.171 25.0209 31.171H29.4175C37.3062 31.171 43.7013 37.5661 43.7013 45.4549C43.7013 46.721 42.675 47.7474 41.4089 47.7474H13.0295C11.7634 47.7474 10.737 46.721 10.737 45.4549Z" fill="#00C5BF"/>
<mask id="mask0_272_2005" style="mask-type:alpha" maskUnits="userSpaceOnUse" x="24" y="30" width="24" height="22">
<path d="M25.5874 40.4012C24.9986 42.5057 24.7323 43.7816 24.9282 45.9581C24.9916 46.6627 25.1032 47.3419 25.4933 48.1243C26.7366 50.6184 32.0861 50.8556 32.0861 50.8556L46.5904 49.8196L39.6208 30.8886H35.4767C35.4767 30.8886 33.6189 30.4731 32.557 30.8886C30.3908 31.7363 29.4428 32.8687 28.1304 34.7502C26.9365 36.4617 26.0872 38.6154 25.5874 40.4012Z" fill="#111E4C" stroke="#111E4C"/>
</mask>
<g mask="url(#mask0_272_2005)">
<path d="M10.8005 45.4549C10.8005 37.5661 17.1956 31.171 25.0844 31.171H29.481C37.3698 31.171 43.7649 37.5661 43.7649 45.4549C43.7649 46.721 42.7385 47.7474 41.4724 47.7474H13.093C11.8269 47.7474 10.8005 46.721 10.8005 45.4549Z" fill="#111E4C"/>
</g>
<circle cx="36.5433" cy="1.50694" r="1.50694" fill="#FF4E0A"/>
<circle cx="63.7625" cy="27.7845" r="1.41276" fill="#00C5BF"/>
<circle cx="50.6708" cy="53.6848" r="0.941839" fill="white"/>
<circle cx="33.0585" cy="60.3718" r="1.97786" fill="#FF4E0A"/>
<circle cx="2.44878" cy="24.8646" r="2.44878" fill="white"/>
<path d="M29.5737 45.5529C29.5737 37.6642 35.9688 31.269 43.8575 31.269H48.2541C56.1429 31.269 62.538 37.6642 62.538 45.5529C62.538 46.819 61.5116 47.8454 60.2455 47.8454H31.8661C30.6 47.8454 29.5737 46.819 29.5737 45.5529Z" fill="white"/>
</svg>
