<svg width="72" height="64" viewBox="0 0 72 64" fill="none" xmlns="http://www.w3.org/2000/svg">
<path d="M14.4304 17.4199C14.4304 13.0016 18.0121 9.41992 22.4304 9.41992H47.9176C52.3359 9.41992 55.9176 13.0016 55.9176 17.4199V21.8461H14.4304V17.4199Z" fill="#00C5BF"/>
<circle cx="37.3787" cy="15.5326" r="2.10443" fill="white"/>
<circle cx="43.3913" cy="61.2288" r="2.10443" fill="#FF4E0A"/>
<circle cx="1.50316" cy="29.5622" r="1.50316" fill="#00C5BF"/>
<circle cx="33.6708" cy="1.60337" r="1.60337" fill="#FF4E0A"/>
<circle cx="66.8406" cy="41.9883" r="1.50316" fill="#00C5BF"/>
<circle cx="14.4304" cy="58.1222" r="1.00211" fill="white"/>
<circle cx="68.9451" cy="23.4494" r="2.60548" fill="white"/>
<circle cx="28.9609" cy="15.5326" r="2.10443" fill="white"/>
<circle cx="20.7436" cy="15.5326" r="2.10443" fill="white"/>
<path d="M14.4304 25.8544H55.9176V40.7067C55.9176 46.2295 51.4405 50.7067 45.9176 50.7067H24.4304C18.9075 50.7067 14.4304 46.2295 14.4304 40.7067V25.8544Z" fill="white"/>
</svg>
