<svg width="146" height="45" viewBox="0 0 146 45" fill="none" xmlns="http://www.w3.org/2000/svg">
<path d="M27.3813 0.799194H0.332275V5.59317H11.2617V35.7553H16.5018V5.59317H27.3813V0.799194ZM36.6267 11.286C29.6898 11.286 24.0505 16.1799 24.0505 23.7703C24.0505 31.3608 29.6898 36.2546 36.6267 36.2546C43.6136 36.2546 49.2529 31.3608 49.2529 23.7703C49.2529 16.1799 43.6136 11.286 36.6267 11.286ZM36.6267 31.6105C31.3367 31.6105 29.1908 29.3633 29.1908 23.7703C29.1908 18.1774 31.3367 15.9302 36.6267 15.9302C41.9168 15.9302 44.1126 18.1774 44.1126 23.7703C44.1126 29.3633 41.9168 31.6105 36.6267 31.6105ZM68.0127 16.3297V11.7854H60.7269V4.44461H55.6365V11.7854H50.596V16.3297H55.6365V29.1136C55.6365 33.1086 58.2816 35.7553 62.274 35.7553H67.2646V31.211H60.7269V16.3297H68.0127ZM89.2147 11.7854V16.829C87.5678 13.2835 84.4736 11.286 80.3813 11.286C73.644 11.286 69.402 16.2797 69.402 23.7703C69.402 31.2609 73.6939 36.2546 80.5809 36.2546C84.5734 36.2546 87.5678 34.2571 89.2147 30.8115V35.7553H94.3051V11.7854H89.2147ZM81.9783 31.6105C76.6883 31.6105 74.5423 29.3633 74.5423 23.7703C74.5423 18.1774 76.6883 15.9302 81.9783 15.9302C87.2683 15.9302 89.4642 18.1774 89.4642 23.7703C89.4642 29.3633 87.2683 31.6105 81.9783 31.6105ZM100.651 35.7553H105.742V0.799194H100.651V35.7553ZM112.068 35.7553H117.159V0.799194H112.068V35.7553ZM139.806 11.7854L134.566 26.8664L132.77 32.5093L131.073 26.9164L125.883 11.7854H120.243L130.674 38.8014L130.773 38.7016L130.474 39.7003H121.79V44.2446H126.931C131.322 44.2446 133.219 42.7964 134.666 39.151L145.446 11.7854H139.806Z" fill="white"/>
</svg>
