<svg width="77" height="77" viewBox="0 0 77 77" fill="none" xmlns="http://www.w3.org/2000/svg">
<path fill-rule="evenodd" clip-rule="evenodd" d="M0 38.0973C0 17.0568 17.0461 0 38.0734 0C59.1006 0 76.1467 17.0568 76.1467 38.0973V76.1946H38.0734C17.0461 76.1946 0 59.1378 0 38.0973ZM8.53231 24.4854H58.0357C61.014 24.4854 63.4288 29.4791 63.4288 33.1841V34.9561H45.6397C42.5005 34.9561 40.2467 37.614 40.2467 39.4665V69.9121H36.3645C32.3583 69.9121 29.6216 67.3347 29.6216 64.4352V34.9561H12.235C10.0051 34.9561 8.53231 32.4592 8.53231 30.6067V24.4854ZM63.4288 59.2803V46.7155H52.9646C51.628 46.7155 50.7108 47.9554 50.7108 49.2929V59.2803H63.4288Z" fill="white"/>
</svg>
