<svg width="137" height="33" viewBox="0 0 137 33" fill="none" xmlns="http://www.w3.org/2000/svg">
<path d="M9.96178 8.45024C6.96259 8.45024 4.66692 9.8952 3.37098 12.3776V8.82074H0.519897V32.5329H3.37098V22.6775C4.66692 25.1599 6.96259 26.6048 9.96178 26.6048C14.9604 26.6048 18.2928 22.9739 18.2928 17.5275C18.2928 12.0812 14.9604 8.45024 9.96178 8.45024ZM9.29529 24.0113C4.92611 24.0113 3.22287 22.1959 3.22287 17.5275C3.22287 12.8592 4.92611 11.0438 9.29529 11.0438C13.6645 11.0438 15.3677 12.8592 15.3677 17.5275C15.3677 22.1959 13.6645 24.0113 9.29529 24.0113ZM22.0086 26.2343H24.8597V0.299194H22.0086V26.2343ZM43.4868 8.82074V12.3776C42.1908 9.8952 39.8952 8.45024 36.896 8.45024C31.8974 8.45024 28.5649 12.0812 28.5649 17.5275C28.5649 22.9739 31.8974 26.6048 36.896 26.6048C39.8952 26.6048 42.1908 25.1599 43.4868 22.6775V26.2343H46.3379V8.82074H43.4868ZM37.5625 24.0113C33.1933 24.0113 31.4901 22.1959 31.4901 17.5275C31.4901 12.8592 33.1933 11.0438 37.5625 11.0438C41.9317 11.0438 43.6349 12.8592 43.6349 17.5275C43.6349 22.1959 41.9317 24.0113 37.5625 24.0113ZM60.7544 8.45024C57.0887 8.45024 55.2374 10.3768 54.3858 13.1186V8.82074H51.5347V26.2343H54.3858V18.1944C54.3858 13.6743 56.5333 11.0438 59.9398 11.0438C62.5317 11.0438 64.2349 12.5999 64.2349 15.4527V26.2343H67.0863V15.2675C67.0863 10.8956 64.8274 8.45024 60.7544 8.45024ZM81.3031 8.45024C77.6374 8.45024 75.7861 10.3768 74.9344 13.1186V8.82074H72.0833V26.2343H74.9344V18.1944C74.9344 13.6743 77.082 11.0438 80.4885 11.0438C83.0804 11.0438 84.7836 12.5999 84.7836 15.4527V26.2343H87.6347V15.2675C87.6347 10.8956 85.376 8.45024 81.3031 8.45024ZM94.1128 4.52292C95.4828 4.52292 96.2233 3.74486 96.1863 2.41105C96.1493 1.1143 95.4087 0.410345 94.1128 0.410345C92.7058 0.410345 91.9282 1.1143 91.9652 2.41105C92.0022 3.74486 92.7798 4.52292 94.1128 4.52292ZM92.6317 26.2343H95.4828V8.82074H92.6317V26.2343ZM109.889 8.45024C106.224 8.45024 104.372 10.3768 103.521 13.1186V8.82074H100.67V26.2343H103.521V18.1944C103.521 13.6743 105.668 11.0438 109.075 11.0438C111.667 11.0438 113.37 12.5999 113.37 15.4527V26.2343H116.221V15.2675C116.221 10.8956 113.962 8.45024 109.889 8.45024ZM134.029 8.82074V12.1553C132.845 9.85815 130.66 8.45024 127.772 8.45024C123.107 8.45024 119.737 11.97 119.737 17.0088C119.737 22.0106 123.107 25.5304 127.772 25.5304C130.66 25.5304 132.845 24.1225 134.029 21.8254V25.4192C134.029 28.7908 132.4 30.384 128.401 30.384C124.847 30.384 123.699 29.643 122.699 26.6789L119.959 27.9757C121.181 31.3102 123.958 32.9034 128.401 32.9034C133.659 32.9034 136.881 29.9023 136.881 25.4192V8.82074H134.029ZM128.401 22.8998C124.514 22.8998 122.662 21.0103 122.662 17.0088C122.662 12.9704 124.514 11.0438 128.475 11.0438C132.4 11.0438 134.252 12.9704 134.252 17.0088C134.252 21.0103 132.363 22.8998 128.401 22.8998Z" fill="white"/>
</svg>
