<svg width="156" height="156" viewBox="0 0 156 156" fill="none" xmlns="http://www.w3.org/2000/svg">
<path d="M5.5 8C5.5 6.61929 6.61929 5.5 8 5.5H79.9886C80.6537 5.5 81.2915 5.76508 81.7607 6.23659L83.5328 4.47318L81.7607 6.23659L87.4826 11.9868L93.2147 17.7472C93.6809 18.2157 93.9426 18.8497 93.9426 19.5106V113.574C93.9426 114.954 92.8233 116.074 91.4426 116.074H8C6.61929 116.074 5.5 114.954 5.5 113.574V8Z" fill="#4E77CC" stroke="#4E77CC" stroke-width="5"/>
<path d="M3 8C3 5.23858 5.23858 3 8 3H77.0668C79.8283 3 82.0668 5.23858 82.0668 8V12.4467C82.0668 15.2081 84.3054 17.4467 87.0668 17.4467H91.4426C94.204 17.4467 96.4426 19.6853 96.4426 22.4467V113.574C96.4426 116.335 94.204 118.574 91.4426 118.574H8C5.23857 118.574 3 116.335 3 113.574V8Z" fill="#4E77CC" stroke="#00C5BF" stroke-width="5"/>
<rect x="17" y="28" width="32.8125" height="7.03125" rx="3" fill="#111E4C"/>
<rect x="50" y="67" width="32.8125" height="7.03125" rx="3" fill="#FF4E0A"/>
<rect x="17" y="41" width="66" height="7" rx="3" fill="#111E4C"/>
<rect x="17" y="54" width="66" height="7" rx="3" fill="#111E4C"/>
<path d="M52.2622 37.5901C52.2622 34.8287 54.5008 32.5901 57.2622 32.5901H128.41C131.171 32.5901 133.41 34.8287 133.41 37.5901V42.0368C133.41 44.7982 135.648 47.0368 138.41 47.0368H143.164C145.925 47.0368 148.164 49.2754 148.164 52.0368V143.164C148.164 145.925 145.925 148.164 143.164 148.164H57.2622C54.5008 148.164 52.2622 145.925 52.2622 143.164V37.5901Z" fill="#111E4C" stroke="#111E4C" stroke-width="5"/>
<path d="M59.5981 42.4263C59.5981 41.0456 60.7174 39.9263 62.0981 39.9263H136.205C136.859 39.9263 137.487 40.1825 137.954 40.64L139.704 38.8537L137.954 40.64L143.874 46.4359L149.749 52.1887C150.229 52.6589 150.5 53.3028 150.5 53.975V148C150.5 149.381 149.38 150.5 148 150.5H62.0981C60.7174 150.5 59.5981 149.381 59.5981 148V42.4263Z" fill="#00C5BF" stroke="#00C5BF" stroke-width="5"/>
<path d="M57.0981 42.4263C57.0981 39.6648 59.3367 37.4263 62.0981 37.4263H133.246C136.007 37.4263 138.246 39.6648 138.246 42.4263V46.873C138.246 49.6344 140.484 51.873 143.246 51.873H148C150.761 51.873 153 54.1116 153 56.873V148C153 150.761 150.761 153 148 153H62.0981C59.3367 153 57.0981 150.761 57.0981 148V42.4263Z" fill="#00C5BF" stroke="#4E77CC" stroke-width="5"/>
</svg>
