<svg width="150" height="150" viewBox="0 0 150 150" fill="none" xmlns="http://www.w3.org/2000/svg">
<circle cx="30.4688" cy="98.4375" r="18.75" fill="#FF4E0A"/>
<circle cx="119.531" cy="98.4375" r="18.75" fill="#00C5BF"/>
<circle cx="75" cy="18.75" r="18.75" fill="#4E77CC"/>
<path d="M0 145.786C0 131.286 11.7548 119.531 26.255 119.531H34.6825C49.1827 119.531 60.9375 131.286 60.9375 145.786C60.9375 148.113 59.0509 150 56.7237 150H4.21376C1.88657 150 0 148.113 0 145.786Z" fill="#FF4E0A"/>
<path d="M89.0625 145.786C89.0625 131.286 100.817 119.531 115.317 119.531H123.745C138.245 119.531 150 131.286 150 145.786C150 148.113 148.113 150 145.786 150H93.2763C90.9491 150 89.0625 148.113 89.0625 145.786Z" fill="#00C5BF"/>
<path d="M44.5312 66.0987C44.5312 51.5985 56.286 39.8438 70.7862 39.8438H79.2138C93.714 39.8438 105.469 51.5985 105.469 66.0987C105.469 68.4259 103.582 70.3125 101.255 70.3125H48.745C46.4178 70.3125 44.5312 68.4259 44.5312 66.0987Z" fill="#4E77CC"/>
<rect x="58.5938" y="96.0938" width="32.8125" height="7.03125" rx="3" fill="#4E77CC"/>
<rect x="21.0938" y="63.4885" width="32.8125" height="7.03125" rx="3" transform="rotate(-60 21.0938 63.4885)" fill="#4E77CC"/>
<rect x="120.998" y="65.8323" width="32.8125" height="7.03125" rx="3" transform="rotate(-120 120.998 65.8323)" fill="#4E77CC"/>
</svg>
