<svg width="161" height="150" viewBox="0 0 161 150" fill="none" xmlns="http://www.w3.org/2000/svg">
<path d="M33.0508 43.0508C33.0508 37.5279 37.5279 33.0508 43.0508 33.0508H117.119C122.641 33.0508 127.119 37.5279 127.119 43.0508V61.0169H33.0508V43.0508Z" fill="#00C5BF"/>
<path d="M33.0508 68.644H127.119V114.576C127.119 120.099 122.641 124.576 117.119 124.576H43.0508C37.5279 124.576 33.0508 120.099 33.0508 114.576V68.644Z" fill="#4E77CC"/>
<circle cx="49.5761" cy="47.0339" r="6.35593" fill="#111E4C"/>
<circle cx="69.915" cy="47.0339" r="6.35593" fill="#111E4C"/>
<circle cx="90.2544" cy="47.0339" r="6.35593" fill="#111E4C"/>
<circle cx="148.729" cy="8.89828" r="3.81356" fill="#FF4E0A"/>
<circle cx="155.085" cy="127.119" r="5.08475" fill="#00C5BF"/>
<circle cx="96.6101" cy="12.7119" r="5.08475" fill="#4E77CC"/>
<circle cx="2.54237" cy="2.54237" r="2.54237" fill="#00C5BF"/>
<circle cx="10.1697" cy="81.356" r="5.08475" fill="#4E77CC"/>
<circle cx="33.0507" cy="147.458" r="2.54237" fill="#FF4E0A"/>
</svg>
